<svg width="496" height="154" viewBox="0 0 496 154" fill="none" xmlns="http://www.w3.org/2000/svg">
<path d="M192.321 103.168C194.173 104.427 195.099 106.465 195.099 109.279C195.099 112.02 194.396 114.28 192.988 116.057C191.581 117.835 189.729 119.317 187.432 120.502C182.691 122.947 177.765 124.169 172.654 124.169C167.543 124.169 163.468 123.613 160.431 122.502C157.468 121.391 154.987 119.798 152.987 117.724C149.061 113.798 147.097 108.242 147.097 101.057C147.097 89.8713 150.135 80.871 156.209 74.0559C162.728 66.7223 171.654 63.0555 182.988 63.0555C190.025 63.0555 195.284 64.537 198.766 67.5001C201.359 69.7224 202.655 72.6485 202.655 76.2782C202.655 89.3157 191.395 95.8345 168.876 95.8345C168.58 97.7605 168.432 99.5383 168.432 101.168C168.432 104.576 169.172 106.946 170.654 108.279C172.21 109.539 174.395 110.168 177.21 110.168C180.025 110.168 182.914 109.539 185.877 108.279C188.914 106.946 191.062 105.242 192.321 103.168ZM169.654 91.0565C174.913 91.0565 179.062 89.4268 182.099 86.1675C185.136 83.0562 186.654 79.0191 186.654 74.0559C186.654 72.3521 186.321 71.0558 185.654 70.1669C185.062 69.2039 184.136 68.7224 182.877 68.7224C181.617 68.7224 180.432 68.9817 179.321 69.5002C178.284 69.9447 177.21 70.9817 176.099 72.6114C173.358 76.3153 171.209 82.4636 169.654 91.0565Z" fill="black"/>
<path d="M200.902 121.391L214.903 48.6105C223.644 47.8698 230.829 47.4994 236.459 47.4994C242.089 47.4994 246.719 47.7587 250.349 48.2772C253.978 48.7217 257.016 49.5735 259.46 50.8328C264.349 53.2033 266.794 57.6479 266.794 64.1667C266.794 67.9446 265.164 71.4262 261.905 74.6115C258.868 77.5005 255.682 79.2783 252.349 79.945C255.904 80.5376 258.942 82.1673 261.46 84.8341C264.127 87.649 265.46 91.2417 265.46 95.6123C265.46 104.057 262.312 110.761 256.016 115.724C249.719 120.613 240.385 123.058 228.015 123.058C219.496 123.058 210.458 122.502 200.902 121.391ZM225.57 114.946C226.237 115.02 226.644 115.057 226.792 115.057H227.792C233.867 115.057 238.2 113.057 240.793 109.057C242.719 105.946 243.682 101.538 243.682 95.8345C243.682 92.7973 242.682 90.4639 240.682 88.8342C238.756 87.2045 235.57 86.3156 231.126 86.1675L225.57 114.946ZM248.015 64.2778C248.015 58.1294 245.052 55.0552 239.126 55.0552H238.126C237.83 55.0552 237.459 55.0923 237.015 55.1663L232.57 78.6116H233.681C243.237 78.3894 248.015 73.6115 248.015 64.2778Z" fill="black"/>
<path d="M273.096 118.613C271.392 116.687 270.133 114.206 269.318 111.168C268.577 108.131 268.207 104.131 268.207 99.1679C268.207 94.2048 269.059 89.4639 270.763 84.9452C272.466 80.4265 274.874 76.5375 277.985 73.2781C284.356 66.463 292.8 63.0555 303.319 63.0555C307.097 63.0555 310.357 63.6852 313.097 64.9445L332.098 63.0555L323.876 106.39C323.653 107.279 323.542 108.539 323.542 110.168C323.542 111.798 324.024 113.131 324.987 114.168C326.024 115.206 327.283 115.798 328.765 115.946C328.024 118.465 326.283 120.465 323.542 121.947C320.876 123.428 318.024 124.169 314.986 124.169C311.949 124.169 309.394 123.576 307.319 122.391C305.319 121.28 304.023 119.761 303.43 117.835C302.245 119.687 300.393 121.206 297.875 122.391C295.356 123.576 292.393 124.169 288.985 124.169C285.652 124.169 282.615 123.724 279.874 122.835C277.133 121.947 274.874 120.539 273.096 118.613ZM296.541 73.5003C295.726 74.8337 294.949 76.6486 294.208 78.945C293.467 81.1673 292.467 85.3156 291.208 91.3899C290.023 97.3901 289.43 102.538 289.43 106.835C289.43 111.131 289.763 113.909 290.43 115.169C291.097 116.428 292.023 117.057 293.208 117.057C295.578 117.057 297.615 115.946 299.319 113.724C301.097 111.428 302.319 108.279 302.986 104.279L308.875 71.7225C307.319 70.3891 305.616 69.7224 303.764 69.7224C301.986 69.7224 300.541 70.0187 299.43 70.6113C298.393 71.204 297.43 72.167 296.541 73.5003Z" fill="black"/>
<path d="M354.98 123.058C351.498 122.317 348.832 121.798 346.98 121.502C345.202 121.132 343.239 120.947 341.091 120.947C339.017 120.947 336.942 121.317 334.868 122.058C333.757 121.391 332.831 120.391 332.09 119.058C331.424 117.724 331.09 116.02 331.09 113.946C331.09 109.576 333.313 105.724 337.757 102.39L365.98 82.0562C360.721 80.5747 355.684 79.8339 350.869 79.8339C346.128 79.8339 342.906 81.4636 341.202 84.723C338.683 81.7599 337.424 77.9449 337.424 73.2781C337.424 70.1669 338.535 67.6112 340.757 65.6112C343.054 63.537 346.572 62.4999 351.313 62.4999C353.98 62.4999 356.499 62.6851 358.869 63.0555C361.314 63.3518 363.61 63.6481 365.758 63.9444L371.758 64.8334C373.684 65.1297 375.61 65.2778 377.536 65.2778C379.537 65.2778 381.277 64.8704 382.759 64.0555C384.685 65.8334 385.648 67.9446 385.648 70.3891C385.648 74.2411 383.277 78.1672 378.537 82.1673L350.424 103.168C356.202 104.872 360.573 105.724 363.536 105.724C369.758 105.724 374.203 104.242 376.87 101.279C378.944 103.65 379.981 106.909 379.981 111.057C379.981 115.131 378.648 118.354 375.981 120.724C373.314 123.021 369.573 124.169 364.758 124.169C361.795 124.169 358.536 123.798 354.98 123.058Z" fill="black"/>
<path d="M430.195 103.168C432.047 104.427 432.973 106.465 432.973 109.279C432.973 112.02 432.269 114.28 430.861 116.057C429.454 117.835 427.602 119.317 425.306 120.502C420.565 122.947 415.639 124.169 410.527 124.169C405.416 124.169 401.342 123.613 398.305 122.502C395.342 121.391 392.86 119.798 390.86 117.724C386.934 113.798 384.971 108.242 384.971 101.057C384.971 89.8713 388.008 80.871 394.082 74.0559C400.601 66.7223 409.527 63.0555 420.861 63.0555C427.898 63.0555 433.158 64.537 436.639 67.5001C439.232 69.7224 440.528 72.6485 440.528 76.2782C440.528 89.3157 429.269 95.8345 406.749 95.8345C406.453 97.7605 406.305 99.5383 406.305 101.168C406.305 104.576 407.046 106.946 408.527 108.279C410.083 109.539 412.268 110.168 415.083 110.168C417.898 110.168 420.787 109.539 423.75 108.279C426.787 106.946 428.935 105.242 430.195 103.168ZM407.527 91.0565C412.787 91.0565 416.935 89.4268 419.972 86.1675C423.009 83.0562 424.528 79.0191 424.528 74.0559C424.528 72.3521 424.194 71.0558 423.528 70.1669C422.935 69.2039 422.009 68.7224 420.75 68.7224C419.491 68.7224 418.305 68.9817 417.194 69.5002C416.157 69.9447 415.083 70.9817 413.972 72.6114C411.231 76.3153 409.083 82.4636 407.527 91.0565Z" fill="black"/>
<path d="M474.666 90.7232C477.333 85.9823 478.666 81.2043 478.666 76.3893C478.666 73.204 477.518 71.6114 475.221 71.6114C473.444 71.6114 471.629 73.13 469.777 76.1671C467.851 79.2043 466.592 82.6859 465.999 86.6119L460.221 121.947L437.22 124.169L448.554 65.2778L466.888 63.0555L464.888 74.2781C468.518 66.7964 474.407 63.0555 482.555 63.0555C486.852 63.0555 490.148 64.1667 492.444 66.389C494.815 68.6113 496 72.0188 496 76.6116C496 81.1302 494.481 84.8341 491.444 87.7231C488.481 90.6121 484.444 92.0566 479.333 92.0566C477.11 92.0566 475.555 91.6121 474.666 90.7232Z" fill="black"/>
<g clip-path="url(#clip0_128_24)">
<path d="M120.97 89.4503L112.253 36.4287C111.514 31.906 107.54 28.5758 102.886 28.5758H100.729L101.941 43.7435C102.088 45.6486 101.483 47.4955 100.227 48.9497C98.9711 50.404 97.213 51.291 95.2924 51.4365C95.0855 51.451 94.8787 51.4656 94.6719 51.4656C90.9193 51.4656 87.7429 48.5716 87.4474 44.8779L86.1325 28.5758H44.6471L43.2435 44.9215C42.9333 48.6007 39.7421 51.4656 36.0043 51.4656C35.8122 51.4656 35.6201 51.451 35.3838 51.4365C31.3948 51.102 28.4104 47.6409 28.7502 43.6999L30.0503 28.5613H25.6625C20.9643 28.5613 16.9753 31.9497 16.281 36.516L0.029548 142.981C0.014774 143.054 0.014774 143.141 0 143.228C83.2811 159.021 106.594 91.1808 106.594 91.1808C105.797 120.28 93.0763 139.985 77.2829 153.262C105.944 146.878 125.889 119.379 120.97 89.4503Z" fill="#0989FF"/>
<path d="M70.6616 96.0168C72.172 97.3398 72.7734 99.2537 72.4658 101.759C72.1663 104.198 71.2933 106.131 69.8466 107.56C68.3998 108.988 66.59 110.104 64.417 110.908C59.9311 112.565 55.414 113.114 50.8656 112.556C46.3172 111.997 42.7524 111.058 40.1712 109.737C37.6558 108.425 35.6216 106.736 34.0684 104.672C31.0037 100.749 29.8639 95.591 30.649 89.1969C31.8711 79.2432 35.5572 71.5659 41.7071 66.1651C48.3093 60.3514 56.6531 58.0637 66.7386 59.3021C73.0009 60.071 77.5193 61.964 80.2937 64.9812C82.358 67.242 83.1919 69.9874 82.7953 73.2174C81.3708 84.8191 70.6389 89.3897 50.5996 86.9292C50.1255 88.6107 49.7994 90.1766 49.6214 91.6268C49.2491 94.659 49.6492 96.8494 50.8219 98.1978C52.0686 99.4884 53.9444 100.287 56.4493 100.595C58.9542 100.903 61.5939 100.658 64.3682 99.861C67.2166 99.0064 69.3144 97.7249 70.6616 96.0168ZM51.8138 82.7624C56.4941 83.3371 60.3636 82.3401 63.4224 79.7715C66.465 77.3348 68.2574 73.9082 68.7997 69.4916C68.9858 67.9755 68.8309 66.7855 68.3347 65.9216C67.9126 64.9999 67.1412 64.4703 66.0206 64.3327C64.9 64.1951 63.8169 64.2963 62.7715 64.6363C61.8001 64.9185 60.731 65.724 59.5641 67.0528C56.7204 70.0493 54.137 75.2858 51.8138 82.7624Z" fill="white"/>
<path d="M98.3211 44.0344L96.5777 22.468C95.5583 9.91791 85.1426 0.334475 72.3483 0.174509L59.0961 0C58.9926 0 58.8892 0 58.7858 0C46.0654 0 35.3247 9.69978 34.2462 22.1917L32.3699 44.0053C32.2074 45.9685 33.6848 47.6991 35.6792 47.8736C35.7827 47.8881 35.8861 47.8881 35.9895 47.8881C37.851 47.8881 39.4466 46.4775 39.6091 44.6161L41.4854 22.8025C42.2389 14.0043 49.7441 7.15486 58.7415 7.15486C58.8301 7.15486 58.904 7.15486 58.9926 7.15486L72.2597 7.31483C81.2719 7.43117 88.6145 14.1788 89.3385 23.0352L91.0818 44.6015C91.2295 46.463 92.8103 47.9027 94.6866 47.9027C94.7901 47.9027 94.8935 47.9027 94.9969 47.8881C96.9914 47.7281 98.4836 45.9976 98.3211 44.0344Z" fill="#0989FF"/>
</g>
<defs>
<clipPath id="clip0_128_24">
<rect width="121.708" height="153.262" fill="white"/>
</clipPath>
</defs>
</svg>
