<svg width="44" height="25" viewBox="0 0 44 25" fill="none" xmlns="http://www.w3.org/2000/svg">
<path d="M11.328 18.224C9.99467 18.224 8.93333 17.84 8.144 17.072C7.35467 16.2933 6.96 15.1627 6.96 13.68V11.12C6.96 9.63733 7.35467 8.512 8.144 7.744C8.93333 6.96533 9.99467 6.576 11.328 6.576C12.6507 6.576 13.664 6.944 14.368 7.68C15.0827 8.416 15.44 9.424 15.44 10.704V10.784H14.112V10.656C14.112 9.81333 13.8827 9.12533 13.424 8.592C12.976 8.048 12.2773 7.776 11.328 7.776C10.3787 7.776 9.63733 8.06933 9.104 8.656C8.57067 9.232 8.304 10.0427 8.304 11.088V13.712C8.304 14.7573 8.57067 15.5733 9.104 16.16C9.63733 16.736 10.3787 17.024 11.328 17.024C12.2773 17.024 12.976 16.7573 13.424 16.224C13.8827 15.68 14.112 14.9867 14.112 14.144V13.888H15.44V14.096C15.44 15.376 15.0827 16.384 14.368 17.12C13.664 17.856 12.6507 18.224 11.328 18.224ZM21.6096 18.224C20.2763 18.224 19.2096 17.84 18.4096 17.072C17.6203 16.2933 17.2256 15.1627 17.2256 13.68V11.12C17.2256 9.63733 17.6203 8.512 18.4096 7.744C19.2096 6.96533 20.2763 6.576 21.6096 6.576C22.9536 6.576 24.0203 6.96533 24.8096 7.744C25.6096 8.512 26.0096 9.63733 26.0096 11.12V13.68C26.0096 15.1627 25.6096 16.2933 24.8096 17.072C24.0203 17.84 22.9536 18.224 21.6096 18.224ZM21.6096 17.024C22.5803 17.024 23.3323 16.736 23.8656 16.16C24.399 15.5733 24.6656 14.7627 24.6656 13.728V11.072C24.6656 10.0373 24.399 9.232 23.8656 8.656C23.3323 8.06933 22.5803 7.776 21.6096 7.776C20.6496 7.776 19.903 8.06933 19.3696 8.656C18.8363 9.232 18.5696 10.0373 18.5696 11.072V13.728C18.5696 14.7627 18.8363 15.5733 19.3696 16.16C19.903 16.736 20.6496 17.024 21.6096 17.024ZM27.3145 18V16.8H28.8825V8H27.3145V6.8H31.6825C33.1545 6.8 34.2905 7.17333 35.0905 7.92C35.9012 8.66667 36.3065 9.81333 36.3065 11.36V13.44C36.3065 14.9973 35.9012 16.1493 35.0905 16.896C34.2905 17.632 33.1545 18 31.6825 18H27.3145ZM30.2265 16.784H31.6825C32.7705 16.784 33.5918 16.5173 34.1465 15.984C34.7012 15.4507 34.9785 14.624 34.9785 13.504V11.312C34.9785 10.1707 34.7012 9.33867 34.1465 8.816C33.5918 8.29333 32.7705 8.032 31.6825 8.032H30.2265V16.784Z" fill="black"/>
</svg>
