<svg width="44" height="28" viewBox="0 0 44 28" fill="none" xmlns="http://www.w3.org/2000/svg">
<path d="M27.9493 2.90637H16.0515V24.287H27.9493V2.90637Z" fill="#FF5F00"/>
<path d="M16.8068 13.5974C16.805 11.5383 17.2716 9.50579 18.1713 7.65368C19.0711 5.80156 20.3805 4.17842 22.0003 2.90714C19.9944 1.33045 17.5853 0.349936 15.0485 0.0776576C12.5117 -0.194621 9.94947 0.252327 7.65467 1.36741C5.35986 2.4825 3.42506 4.22073 2.07145 6.38344C0.717834 8.54614 0 11.0461 0 13.5974C0 16.1488 0.717834 18.6487 2.07145 20.8115C3.42506 22.9742 5.35986 24.7124 7.65467 25.8275C9.94947 26.9426 12.5117 27.3895 15.0485 27.1172C17.5853 26.845 19.9944 25.8644 22.0003 24.2878C20.3805 23.0165 19.0711 21.3933 18.1714 19.5412C17.2716 17.6891 16.805 15.6565 16.8068 13.5974V13.5974Z" fill="#EB001B"/>
<path d="M44.0001 13.5974C44.0002 16.1488 43.2824 18.6487 41.9289 20.8114C40.5753 22.9741 38.6406 24.7123 36.3459 25.8274C34.0511 26.9425 31.4889 27.3895 28.9521 27.1172C26.4153 26.8449 24.0063 25.8644 22.0005 24.2877C23.6189 23.0152 24.9272 21.3918 25.8268 19.5399C26.7264 17.6881 27.1939 15.6562 27.1939 13.5974C27.1939 11.5387 26.7264 9.50675 25.8268 7.65493C24.9272 5.80311 23.6189 4.1797 22.0005 2.90713C24.0063 1.33045 26.4153 0.34993 28.9521 0.0776552C31.4889 -0.19462 34.0511 0.252336 36.3459 1.36743C38.6406 2.48253 40.5753 4.22077 41.9289 6.38348C43.2824 8.54619 44.0002 11.0461 44.0001 13.5974V13.5974Z" fill="#F79E1B"/>
<path d="M42.7027 22.0228V21.585H42.8792V21.4959H42.4297V21.585H42.6063V22.0228H42.7027ZM43.5754 22.0228V21.495H43.4376L43.2791 21.858L43.1206 21.495H42.9827V22.0228H43.08V21.6247L43.2287 21.9679H43.3295L43.4782 21.6238V22.0228H43.5754Z" fill="#F79E1B"/>
</svg>
