<svg width="44" height="15" viewBox="0 0 44 15" fill="none" xmlns="http://www.w3.org/2000/svg">
<path d="M21.7859 0.250992L18.8464 13.9941H15.2907L18.2306 0.250992H21.7859ZM36.7441 9.12505L38.6154 3.96426L39.6923 9.12505H36.7441ZM40.7124 13.9941H44L41.1278 0.250992H38.0952C37.4118 0.250992 36.8356 0.647263 36.5806 1.25836L31.2458 13.9941H34.9797L35.721 11.9416H40.2818L40.7124 13.9941ZM31.4309 9.50742C31.4464 5.88039 26.4169 5.67947 26.4506 4.05884C26.4615 3.56644 26.9313 3.04189 27.9581 2.90774C28.4672 2.84221 29.8721 2.78904 31.4646 3.52286L32.0874 0.607389C31.2322 0.297976 30.1314 0 28.7618 0C25.247 0 22.7745 1.86699 22.7547 4.54259C22.7321 6.52116 24.5209 7.62435 25.8658 8.28336C27.2524 8.9569 27.717 9.38872 27.7102 9.99054C27.7006 10.9126 26.6046 11.3209 25.5839 11.3364C23.7954 11.3642 22.7587 10.8529 21.9325 10.4678L21.2871 13.4806C22.1192 13.8615 23.6523 14.1928 25.2399 14.2098C28.9766 14.2098 31.4198 12.3648 31.4309 9.50742ZM16.7055 0.250992L10.9447 13.9941H7.18697L4.35187 3.02613C4.18001 2.35166 4.0301 2.10376 3.5074 1.81877C2.65242 1.35449 1.24105 0.920202 0 0.650046L0.0840772 0.250992H6.13386C6.90445 0.250992 7.59777 0.763795 7.77427 1.65154L9.27188 9.60478L12.9703 0.250992H16.7055Z" fill="#1434CB"/>
</svg>
