<svg width="44" height="25" viewBox="0 0 44 25" fill="none" xmlns="http://www.w3.org/2000/svg">
<rect width="44" height="25" fill="#2E69BB"/>
<path fill-rule="evenodd" clip-rule="evenodd" d="M43.9998 12.8749H41.7111C41.0204 12.8749 40.5187 13.0399 40.1633 13.2963V12.8749H36.7779C36.2366 12.8749 35.6011 13.0088 35.3005 13.2963V12.8749H29.2552V13.2963C28.774 12.9503 27.9622 12.8749 27.5875 12.8749H23.5999V13.2963C23.2193 12.9288 22.3728 12.8749 21.8569 12.8749H17.3941L16.3729 13.9768L15.4164 12.8749H8.74988V20.0744H15.2909L16.3432 18.9551L17.3345 20.0744L21.3664 20.0779V18.3844H21.7628C22.2978 18.3926 22.9287 18.3711 23.4854 18.1312V20.0742H26.811V18.1978H26.9714C27.1761 18.1978 27.1963 18.2062 27.1963 18.4102V20.074H37.2989C37.9403 20.074 38.6107 19.9104 38.982 19.6133V20.074H42.1865C42.8533 20.074 43.5045 19.9808 44 19.7422C44 -19.648 43.9998 29.3674 43.9998 12.8749Z" fill="#006FCF"/>
<path fill-rule="evenodd" clip-rule="evenodd" d="M2.11318 11.1944L2.58963 10.0487H3.65629L4.13149 11.1944H8.28903V10.3185L8.66014 11.1982H10.8184L11.1895 10.3054V11.1944H21.5218L21.517 9.31367H21.7169C21.8569 9.3185 21.8978 9.33141 21.8978 9.56184V11.1944H27.2417V10.7566C27.6727 10.9869 28.3431 11.1944 29.2253 11.1944H31.4735L31.9546 10.0487H33.0213L33.4918 11.1944H37.8242V10.1061L38.4802 11.1944H41.9519V4H38.5161V4.84967L38.035 4H34.5095V4.84967L34.0677 4H29.3056C28.5084 4 27.8077 4.11093 27.2417 4.42009V4H23.9554V4.42009C23.5952 4.10144 23.1044 4 22.5587 4H10.5527L9.74709 5.8582L8.91982 4H5.13822V4.84967L4.72279 4H1.49769L0 7.42062V11.1944H2.11318Z" fill="#006FCF"/>
<path fill-rule="evenodd" clip-rule="evenodd" d="M21.8175 17.3227C22.8986 17.3227 23.9712 17.0268 23.9712 15.5935C23.9712 14.1646 22.8684 13.8937 21.887 13.8937H17.9353L16.3622 15.5849L14.8407 13.8937H9.86661V19.0533H14.7653L16.3479 17.3453L17.8707 19.0533H20.2744V17.3227H21.8175ZM20.2744 16.2748H21.8726C22.3478 16.2748 22.6434 16.0397 22.6434 15.5935C22.6434 15.1423 22.3335 14.9609 21.887 14.9609H20.2744V16.2748ZM14.1392 17.9781H11.0985V16.9515H13.8136V15.8988H11.0985V14.9607H14.1991L15.5518 16.4643L14.1392 17.9781ZM19.0427 18.5841L17.1439 16.4824L19.0427 14.4475V18.5841Z" fill="white"/>
<path fill-rule="evenodd" clip-rule="evenodd" d="M29.2601 17.0887C29.1546 16.9384 28.9296 16.7568 28.6543 16.6555C28.9798 16.5267 29.5307 16.1065 29.5309 15.2829C29.5309 14.6943 29.2854 14.3723 28.8951 14.1372C28.4892 13.9212 28.0332 13.8937 27.4071 13.8937H24.5518V19.0533H25.7945V17.1688H27.1162C27.5674 17.1688 27.8428 17.213 28.0235 17.3979C28.2304 17.6138 28.2268 18.0078 28.224 18.3107C28.2237 18.3443 28.2234 18.3768 28.2234 18.4078V19.0533H29.465V18.0305C29.46 17.5757 29.4348 17.3406 29.2601 17.0887ZM27.9074 16.0135C27.742 16.1113 27.5374 16.1197 27.2968 16.1197H25.7944V14.9609H27.3172C27.5374 14.9609 27.7578 14.9656 27.9074 15.0541C28.0677 15.1376 28.1635 15.2974 28.1635 15.5182C28.1635 15.739 28.0677 15.9168 27.9074 16.0135Z" fill="white"/>
<path d="M39.0668 16.3321C39.3076 16.5805 39.4367 16.8942 39.4367 17.4252C39.4367 18.5352 38.7411 19.0533 37.4939 19.0533H35.0852V17.9469H37.4842C37.7188 17.9469 37.8852 17.916 37.9894 17.8192C38.0745 17.7394 38.1355 17.6235 38.1355 17.4826C38.1355 17.3323 38.0695 17.213 37.9846 17.1414C37.89 17.0627 37.7595 17.0269 37.5442 17.0269C37.4684 17.0243 37.3915 17.0223 37.3137 17.0202C36.2042 16.9901 34.9392 16.9558 34.9392 15.43C34.9392 14.6816 35.4109 13.8938 36.7074 13.8938H39.1867V14.992H36.9181C36.6932 14.992 36.547 15.0004 36.4226 15.0852C36.2871 15.1687 36.2369 15.2927 36.2369 15.4564C36.2369 15.6511 36.3519 15.7835 36.5075 15.8407C36.6379 15.886 36.7781 15.8992 36.9888 15.8992L37.6545 15.9171C38.3259 15.9334 38.7867 16.0492 39.0668 16.3321Z" fill="white"/>
<path d="M44 14.9917H41.746C41.521 14.9917 41.3715 15.0001 41.2456 15.0849C41.1151 15.1684 41.0648 15.2924 41.0648 15.4561C41.0648 15.6507 41.175 15.7831 41.3353 15.8404C41.4658 15.8857 41.6059 15.8989 41.8119 15.8989L42.4822 15.9168C43.1585 15.9334 43.61 16.0493 43.8853 16.3321C43.9276 16.3653 43.9556 16.4019 43.9841 16.4391L43.9918 16.4492L43.9967 16.4556L44 16.4598V18.3933C43.6996 18.8313 43.1142 19.0533 42.3217 19.0533H39.9334V17.9469H42.3121C42.548 17.9469 42.7131 17.916 42.8125 17.8192C42.8987 17.7394 42.9588 17.6235 42.9588 17.4827C42.9588 17.3324 42.8987 17.213 42.8077 17.1415C42.718 17.0627 42.5874 17.0269 42.372 17.0269C42.296 17.0244 42.2188 17.0223 42.1409 17.0202C41.0274 16.9901 39.7621 16.9559 39.7621 15.43C39.7621 14.6816 40.2387 13.8938 41.5365 13.8938H43.9998L44 14.9917Z" fill="white"/>
<path d="M30.2166 13.8937H34.3442V14.9607H31.4482V15.8988H34.2735V16.9515H31.4482V17.978L34.3442 17.9827V19.0533H30.2166V13.8937Z" fill="white"/>
<path fill-rule="evenodd" clip-rule="evenodd" d="M3.96621 7.94779L3.11975 5.89137L2.27813 7.94779H3.96621ZM22.6136 7.12897C22.4437 7.23182 22.2427 7.23524 22.0019 7.23524H20.4995V6.08949H22.0223C22.2378 6.08949 22.4627 6.09913 22.6088 6.18253C22.7692 6.25768 22.8685 6.41762 22.8685 6.63856C22.8685 6.86401 22.774 7.04542 22.6136 7.12897ZM33.3314 7.94779L32.4756 5.89137L31.6244 7.94779H33.3314ZM13.3528 10.1737H12.085L12.0803 6.13363L10.287 10.1737H9.20118L7.40323 6.13005V10.1737H4.88788L4.41269 9.02307H1.83772L1.35769 10.1737H0.0144958L2.22912 5.01526H4.06655L6.1699 9.89919V5.01526H8.18836L9.80684 8.51461L11.2936 5.01526H13.3526V10.1737H13.3528ZM18.4058 10.1737H14.2745V5.01526H18.4058V6.08944H15.5113V7.01924H18.3364V8.07663H15.5113V9.10678H18.4058V10.1737ZM24.2308 6.40451C24.2308 7.22696 23.6803 7.65187 23.3594 7.77945C23.63 7.88214 23.8611 8.06356 23.9712 8.21386C24.1458 8.47042 24.1759 8.6996 24.1759 9.1603V10.1737H22.9285L22.9238 9.52314C22.9238 9.21274 22.9537 8.76635 22.7286 8.51819C22.5479 8.33677 22.2725 8.29741 21.8272 8.29741H20.4996V10.1737H19.263V5.01526H22.1075C22.7395 5.01526 23.2052 5.03191 23.605 5.26233C23.9963 5.49276 24.2308 5.82914 24.2308 6.40451ZM26.21 10.1737H24.9481V5.01526H26.21V10.1737ZM40.8495 10.1737H39.097L36.7528 6.30198V10.1737H34.2342L33.7529 9.02307H31.1839L30.7169 10.1737H29.2698C28.6687 10.1737 27.9076 10.0411 27.4765 9.60311C27.0419 9.16513 26.8158 8.57187 26.8158 7.63382C26.8158 6.86879 26.9509 6.16942 27.4825 5.61677C27.8823 5.20508 28.5084 5.01526 29.3606 5.01526H30.5579V6.12056H29.3858C28.9344 6.12056 28.6796 6.18747 28.4341 6.42614C28.2233 6.64334 28.0786 7.05394 28.0786 7.59461C28.0786 8.14726 28.1888 8.54573 28.4187 8.80603C28.6091 9.01016 28.955 9.07208 29.2806 9.07208H29.836L31.579 5.01541H33.432L35.5259 9.89453V5.01541H37.4089L39.5828 8.60796V5.01541H40.8495V10.1737Z" fill="white"/>
</svg>
