<svg width="44" height="28" viewBox="0 0 44 28" fill="none" xmlns="http://www.w3.org/2000/svg">
<path d="M5.03498 16.2798V20.1971H6.43306V16.2798H7.58234V15.0675H3.88579V16.2798H5.03498Z" fill="#006E90"/>
<path fill-rule="evenodd" clip-rule="evenodd" d="M8.26555 20.1971V15.0675H9.7267C10.299 15.0675 10.6978 15.0938 10.9232 15.1463C11.1487 15.1989 11.3432 15.287 11.5067 15.4108C11.6912 15.551 11.8331 15.7297 11.9324 15.9469C12.0317 16.1641 12.0814 16.4036 12.0814 16.6651C12.0814 17.0622 11.9838 17.3853 11.7888 17.6339C11.5937 17.8828 11.3093 18.048 10.9355 18.1299L12.2872 20.1285L14.0329 15.0675H15.7849L17.5578 20.1971H16.1668L15.9075 19.279H13.9208L13.6544 20.1971H10.7533L9.57605 18.1894V20.1971H8.26555ZM9.57614 17.4921H9.83533C10.1366 17.4921 10.3567 17.4406 10.4958 17.3378C10.6348 17.2351 10.7044 17.074 10.7044 16.8543C10.7044 16.5974 10.6396 16.4146 10.5099 16.306C10.3803 16.1973 10.1624 16.1431 9.85639 16.1431H9.57614V17.4921ZM15.6132 18.2805H14.2221L14.7372 16.588C14.7675 16.4829 14.7973 16.3731 14.8266 16.2587C14.8557 16.1442 14.8854 16.024 14.9159 15.8978C14.9603 16.0778 14.9965 16.2249 15.0245 16.3393C15.0526 16.4538 15.0748 16.5367 15.0911 16.5881L15.6132 18.2805Z" fill="#006E90"/>
<path d="M18.0485 20.1971V15.0675H19.3975L21.3352 17.7058C21.3725 17.7597 21.4336 17.8676 21.519 18.03C21.6042 18.1923 21.6984 18.3856 21.8011 18.6098C21.7731 18.3973 21.7527 18.2081 21.7398 18.0423C21.727 17.8763 21.7205 17.7292 21.7205 17.6007V15.0674H23.0625V20.1971H21.7205L19.7828 17.5481C19.743 17.4943 19.6806 17.3864 19.5954 17.224C19.51 17.0615 19.4172 16.8707 19.3169 16.6511C19.3449 16.866 19.3652 17.0564 19.3781 17.2222C19.3908 17.3882 19.3975 17.5354 19.3975 17.6638V20.1971H18.0485Z" fill="#006E90"/>
<path d="M25.0054 19.0688C24.8034 18.9521 24.5984 18.7758 24.3905 18.5398L23.7595 19.5805C24.0306 19.8398 24.3126 20.0303 24.6057 20.1517C24.8988 20.273 25.2241 20.3339 25.5816 20.3339C26.1772 20.3339 26.6538 20.1686 27.0112 19.8381C27.3685 19.5074 27.5473 19.0701 27.5473 18.5258C27.5473 18.3108 27.5156 18.1153 27.4526 17.9389C27.3895 17.7625 27.2972 17.6114 27.1757 17.4851C26.9959 17.3007 26.6209 17.1312 26.051 16.9771L25.988 16.9595C25.724 16.8895 25.5458 16.8159 25.4536 16.7388C25.3613 16.6617 25.3152 16.559 25.3152 16.4306C25.3152 16.3044 25.3677 16.2011 25.4729 16.1204C25.578 16.04 25.7147 15.9996 25.8829 15.9996C26.0465 15.9996 26.2118 16.0341 26.3787 16.103C26.5457 16.1718 26.7087 16.2741 26.8676 16.4095L27.3056 15.4039C27.079 15.2497 26.8389 15.1347 26.5856 15.0588C26.3321 14.9828 26.0641 14.9449 25.7815 14.9449C25.2582 14.9449 24.8324 15.0995 24.5044 15.4092C24.1761 15.7187 24.012 16.1187 24.012 16.6092C24.012 16.9876 24.116 17.2855 24.3239 17.5027C24.5318 17.7198 24.8869 17.8963 25.3891 18.0317C25.7559 18.1299 25.9911 18.225 26.0952 18.3173C26.199 18.4096 26.251 18.541 26.251 18.7115C26.251 18.8657 26.1908 18.993 26.0706 19.0934C25.9502 19.1938 25.7967 19.2441 25.6098 19.2441C25.4089 19.2441 25.2075 19.1856 25.0054 19.0688Z" fill="#006E90"/>
<path d="M28.3323 20.1971V15.0675H31.4753V16.1922H29.6953V17.0822H31.3737V18.1825H29.6953V20.1971H28.3323Z" fill="#006E90"/>
<path d="M32.2357 15.0675V20.1971H35.3786V19.0478H33.5986V18.1825H35.2771V17.0822H33.5986V16.1922H35.3786V15.0675H32.2357Z" fill="#006E90"/>
<path fill-rule="evenodd" clip-rule="evenodd" d="M36.3037 20.1971V15.0675H37.7649C38.3371 15.0675 38.736 15.0938 38.9614 15.1463C39.1868 15.1989 39.3814 15.287 39.5448 15.4108C39.7294 15.551 39.8712 15.7297 39.9705 15.9469C40.0697 16.1641 40.1194 16.4036 40.1194 16.6651C40.1194 17.0622 40.0218 17.3853 39.8269 17.6339C39.6317 17.8828 39.3474 18.048 38.9737 18.1299L40.3718 20.1971H38.7915L37.6141 18.1894V20.1971H36.3037ZM37.6141 17.4921H37.8735C38.1749 17.4921 38.395 17.4406 38.5339 17.3378C38.6729 17.2351 38.7425 17.074 38.7425 16.8543C38.7425 16.5974 38.6777 16.4146 38.548 16.306C38.4183 16.1973 38.2006 16.1431 37.8945 16.1431H37.6141V17.4921Z" fill="#006E90"/>
<path fill-rule="evenodd" clip-rule="evenodd" d="M12.4207 7.29778V14.1375H14.3502C15.1287 14.1375 15.6894 14.111 16.0321 14.058C16.3747 14.005 16.6628 13.9163 16.8964 13.7917C17.1829 13.6391 17.4032 13.4243 17.5574 13.147C17.7116 12.8699 17.7887 12.549 17.7887 12.1846C17.7887 11.6769 17.6515 11.2713 17.3775 10.9676C17.1035 10.6639 16.7235 10.4934 16.2376 10.456C16.6704 10.3377 16.9858 10.1641 17.1837 9.93511C17.3814 9.70617 17.4803 9.39713 17.4803 9.00773C17.4803 8.69938 17.4142 8.42764 17.2817 8.19251C17.1493 7.95729 16.957 7.76968 16.7048 7.62951C16.4836 7.50799 16.2196 7.4224 15.9129 7.37255C15.6061 7.32279 15.0665 7.29778 14.2941 7.29778H12.4207ZM14.523 10.0309H14.1493V8.65263H14.5511C15.0151 8.65263 15.3274 8.70488 15.4878 8.80913C15.6482 8.91354 15.7284 9.09496 15.7284 9.35338C15.7284 9.60261 15.6426 9.77784 15.4714 9.87899C15.3001 9.98032 14.9839 10.0309 14.523 10.0309ZM14.8033 12.7405H14.1493L14.1492 11.2502H14.8313C15.286 11.2502 15.5975 11.3071 15.7656 11.4207C15.9339 11.5344 16.018 11.7345 16.018 12.0211C16.018 12.2795 15.9262 12.4641 15.7424 12.5746C15.5585 12.6852 15.2455 12.7405 14.8033 12.7405Z" fill="#006E90"/>
<path fill-rule="evenodd" clip-rule="evenodd" d="M18.1063 14.1374L20.4657 7.29778H22.8016L25.1656 14.1374H23.3109L22.9651 12.9134H20.3163L19.9611 14.1374H18.1063ZM20.7178 11.5819H22.5727L21.8765 9.32537C21.8546 9.25696 21.8251 9.14635 21.7877 8.99373C21.7503 8.84118 21.702 8.64489 21.6428 8.40504C21.6023 8.57322 21.5626 8.73367 21.5237 8.88622C21.4846 9.03885 21.4449 9.1852 21.4046 9.32537L20.7178 11.5819Z" fill="#006E90"/>
<path d="M25.8196 7.29778V14.1374H27.6184V10.7596C27.6184 10.5883 27.6097 10.3921 27.5927 10.1709C27.5756 9.9499 27.5483 9.69603 27.5109 9.40942C27.6447 9.70222 27.7686 9.95677 27.8823 10.1733C27.996 10.3898 28.0792 10.5339 28.1322 10.6054L30.7157 14.1374H32.505V7.29778H30.7157V10.6756C30.7157 10.8469 30.7243 11.0431 30.7414 11.2642C30.7585 11.4854 30.7858 11.7376 30.8232 12.0211C30.686 11.7221 30.5607 11.4643 30.4471 11.2479C30.3332 11.0314 30.2515 10.8873 30.2018 10.8157L27.6183 7.29778H25.8196Z" fill="#006E90"/>
<path d="M33.9719 14.1373V7.29778H35.8173V10.4045L37.9804 7.29778H40.1528L37.6253 10.6335L40.3724 14.1373H38.0458L35.8173 11.0679V14.1373H33.9719Z" fill="#006E90"/>
<path d="M3.35045 7.28034H10.9251V8.63579H3.35045V7.28034Z" fill="#006E90"/>
<path d="M10.9252 9.91157H3.35047V11.267H10.9252V9.91157Z" fill="#006E90"/>
<path d="M3.35047 12.7819H10.9252V14.1374H3.35047V12.7819Z" fill="#006E90"/>
<path fill-rule="evenodd" clip-rule="evenodd" d="M2.58903 0H41.411C42.8408 0 44 1.15916 44 2.58903V24.753C44 26.183 42.8409 27.342 41.411 27.342H2.58903C1.15916 27.342 0 26.183 0 24.753V2.58903C0 1.15916 1.15916 0 2.58903 0ZM43.5703 2.58903C43.5703 1.39833 42.6016 0.429701 41.411 0.429701H2.58903C1.39833 0.429701 0.429701 1.39842 0.429701 2.58903V24.753C0.429701 25.9437 1.39842 26.9123 2.58903 26.9123H41.411C42.6017 26.9123 43.5703 25.9436 43.5703 24.753V2.58903Z" fill="#006E90"/>
</svg>
