<svg width="44" height="8" viewBox="0 0 44 8" fill="none" xmlns="http://www.w3.org/2000/svg">
<path fill-rule="evenodd" clip-rule="evenodd" d="M3.61283 5.19599C3.17754 5.56818 2.62342 5.73093 1.73731 5.73093H1.36962V1.28945H1.73731C2.62342 1.28945 3.15628 1.44124 3.61283 1.83195C4.08409 2.2357 4.36728 2.85853 4.36728 3.50275C4.36728 4.15011 4.08409 4.79511 3.61283 5.19599ZM2.01179 0.151733H0V6.86912H1.99953C3.06362 6.86912 3.8317 6.62682 4.50494 6.09214C5.30464 5.45887 5.77917 4.50271 5.77917 3.51212C5.77917 1.52912 4.23101 0.151733 2.01179 0.151733Z" fill="#201D1C"/>
<path fill-rule="evenodd" clip-rule="evenodd" d="M6.41064 0.151733H7.77483V6.86912H6.41064V0.151733Z" fill="#201D1C"/>
<path fill-rule="evenodd" clip-rule="evenodd" d="M11.125 2.72635C10.3015 2.43736 10.0609 2.24488 10.0609 1.88182C10.0609 1.45981 10.491 1.13979 11.0824 1.13979C11.4924 1.13979 11.8301 1.2968 12.1899 1.68047L12.9021 0.78638C12.3136 0.290825 11.6093 0.039917 10.8415 0.039917C9.59914 0.039917 8.65225 0.866973 8.65225 1.96059C8.65225 2.8891 9.09244 3.36014 10.377 3.80744C10.914 3.98611 11.1868 4.10817 11.325 4.19085C11.5987 4.36012 11.735 4.60268 11.735 4.88306C11.735 5.42948 11.2825 5.83114 10.6709 5.83114C10.0197 5.83114 9.49284 5.5192 9.17748 4.9334L8.29492 5.75133C8.92591 6.63602 9.68227 7.03143 10.7243 7.03143C12.1454 7.03143 13.1468 6.12091 13.1468 4.82412C13.1468 3.75554 12.6824 3.2712 11.125 2.72635" fill="#201D1C"/>
<path fill-rule="evenodd" clip-rule="evenodd" d="M13.5769 3.51219C13.5769 5.48763 15.1973 7.01837 17.2832 7.01837C17.8714 7.01837 18.3757 6.90726 18.9966 6.62688V5.0831C18.4479 5.61073 17.9663 5.81887 17.3432 5.81887C15.9648 5.81887 14.9885 4.86453 14.9885 3.5028C14.9885 2.21618 15.9965 1.1969 17.2832 1.1969C17.9325 1.1969 18.4285 1.41703 18.9966 1.95249V0.410529C18.3967 0.120237 17.9044 0 17.3113 0C15.2374 0 13.5769 1.56074 13.5769 3.51219" fill="#201D1C"/>
<path fill-rule="evenodd" clip-rule="evenodd" d="M30.0877 4.66155L28.2157 0.151733H26.7231L29.699 7.03865H30.433L33.4667 0.151733H31.9858L30.0877 4.66155" fill="#201D1C"/>
<path fill-rule="evenodd" clip-rule="evenodd" d="M34.0879 6.86912H37.97V5.73091H35.4575V3.9177H37.8746V2.77974H35.4575V1.28942H37.97V0.151733H34.0879V6.86912" fill="#201D1C"/>
<path fill-rule="evenodd" clip-rule="evenodd" d="M40.6438 3.24068H40.2464V1.2089H40.6662C41.5215 1.2089 41.9796 1.5524 41.9796 2.20679C41.9796 2.87918 41.5215 3.24068 40.6438 3.24068ZM43.3893 2.1337C43.3893 0.875766 42.4877 0.151733 40.9071 0.151733H38.8738V6.86912H40.2464V4.16834H40.4244L42.3157 6.86912H43.9999L41.7913 4.03793C42.8235 3.83606 43.3893 3.16158 43.3893 2.1337Z" fill="#201D1C"/>
<path fill-rule="evenodd" clip-rule="evenodd" d="M26.9163 3.52777C26.9163 5.46174 25.2787 7.02926 23.2568 7.02926C21.2355 7.02926 19.5977 5.46174 19.5977 3.52777C19.5977 1.59354 21.2355 0.0257568 23.2568 0.0257568C25.2787 0.0257568 26.9163 1.59354 26.9163 3.52777" fill="url(#paint0_linear_202_368)"/>
<path fill-rule="evenodd" clip-rule="evenodd" d="M26.9163 3.52777C26.9163 5.46174 25.2787 7.02926 23.2568 7.02926C21.2355 7.02926 19.5977 5.46174 19.5977 3.52777C19.5977 1.59354 21.2355 0.0257568 23.2568 0.0257568C25.2787 0.0257568 26.9163 1.59354 26.9163 3.52777" fill="url(#paint1_radial_202_368)"/>
<defs>
<linearGradient id="paint0_linear_202_368" x1="21.0118" y1="0.687493" x2="25.5665" y2="6.18749" gradientUnits="userSpaceOnUse">
<stop stop-color="#E6772F"/>
<stop offset="1" stop-color="#EA9D2C"/>
</linearGradient>
<radialGradient id="paint1_radial_202_368" cx="0" cy="0" r="1" gradientUnits="userSpaceOnUse" gradientTransform="translate(24.0625 4.98437) rotate(-128.1) scale(4.80501 5.02121)">
<stop stop-color="#EA9D2C" stop-opacity="0"/>
<stop offset="0.328125" stop-color="#DF7624" stop-opacity="0"/>
<stop offset="0.760188" stop-color="#BF4B23" stop-opacity="0.75"/>
<stop offset="1" stop-color="#7D3017"/>
</radialGradient>
</defs>
</svg>
