<svg width="44" height="29" viewBox="0 0 44 29" fill="none" xmlns="http://www.w3.org/2000/svg">
<path fill-rule="evenodd" clip-rule="evenodd" d="M41.8294 0.00830813L30.9941 0.00549316C30.9928 0.00549316 30.9913 0.00549316 30.9913 0.00549316C30.9829 0.00549316 30.9747 0.00699574 30.9665 0.00699574C29.478 0.0529653 27.6241 1.25645 27.2864 2.74046L22.1623 25.5962C21.8246 27.094 22.7432 28.3129 24.2209 28.3353H35.6039C37.0591 28.2627 38.4732 27.0731 38.8051 25.6059L43.9294 2.75003C44.2725 1.23694 43.3317 0.00830813 41.8294 0.00830813" fill="#01798A"/>
<path fill-rule="evenodd" clip-rule="evenodd" d="M22.1623 25.5961L27.2864 2.74034C27.6241 1.25634 29.478 0.0528505 30.9665 0.00688103L26.6584 0.00406606L18.8965 0.00256348C17.4038 0.0333359 15.5257 1.24527 15.1882 2.74034L10.0626 25.5961C9.72366 27.0939 10.6436 28.3127 12.1204 28.3352H24.2209C22.7432 28.3127 21.8246 27.0939 22.1623 25.5961" fill="#024381"/>
<path fill-rule="evenodd" clip-rule="evenodd" d="M10.0626 25.5961L15.1882 2.74041C15.5257 1.24533 17.4038 0.0333996 18.8965 0.00262719L8.95302 0C7.452 0 5.52752 1.22582 5.18448 2.74041L0.0588219 25.5961C0.0276296 25.7356 0.0103246 25.8723 0 26.0061V26.4301C0.100339 27.522 0.927556 28.3171 2.11664 28.3352H12.1204C10.6436 28.3128 9.72366 27.094 10.0626 25.5961" fill="#DD0228"/>
<path fill-rule="evenodd" clip-rule="evenodd" d="M19.1061 16.657H19.2943C19.4672 16.657 19.5835 16.5985 19.6381 16.4827L20.127 15.745H21.4365L21.1635 16.2302H22.7335L22.5343 16.9736H20.6661C20.4509 17.2999 20.186 17.4533 19.8676 17.4351H18.8944L19.1061 16.657ZM18.8911 17.7225H22.3309L22.1116 18.53H20.7282L20.5172 19.3095H21.8633L21.644 20.117H20.2979L19.9852 21.2688C19.9078 21.4614 20.0096 21.5479 20.289 21.5283H21.3861L21.1828 22.2787H19.0765C18.6772 22.2787 18.5403 22.0485 18.6655 21.5869L19.0653 20.117H18.2048L18.4234 19.3095H19.284L19.4949 18.53H18.6724L18.8911 17.7225ZM24.3814 15.7394L24.3272 16.2121C24.3272 16.2121 24.9761 15.7211 25.5654 15.7211H27.743L26.9102 18.7599C26.8411 19.1073 26.545 19.28 26.022 19.28H23.5538L22.9757 21.4139C22.9423 21.5282 22.9894 21.5869 23.114 21.5869H23.5996L23.4211 22.2492H22.1864C21.7125 22.2492 21.5154 22.1056 21.5936 21.817L23.2273 15.7394H24.3814ZM26.2254 16.5984H24.2818L24.0493 17.4184C24.0493 17.4184 24.373 17.1828 24.9139 17.1744C25.4533 17.1659 26.0691 17.1744 26.0691 17.1744L26.2254 16.5984ZM25.5212 18.5006C25.6649 18.5203 25.7454 18.4629 25.755 18.3277L25.874 17.8954H23.9274L23.7641 18.5006H25.5212ZM24.2083 19.4824H25.3303L25.3095 19.9718H25.6082C25.7592 19.9718 25.834 19.9231 25.834 19.8269L25.9224 19.5103H26.8549L26.7304 19.9718C26.6251 20.3568 26.3459 20.5576 25.8921 20.5772H25.2944L25.2916 21.4139C25.2806 21.5479 25.4008 21.6162 25.6484 21.6162H26.2102L26.0289 22.2786H24.6814C24.3038 22.2967 24.1186 22.1153 24.1225 21.7305L24.2083 19.4824Z" fill="white"/>
<path fill-rule="evenodd" clip-rule="evenodd" d="M10.6118 11.6907C10.4596 12.4424 10.1068 13.0197 9.55961 13.4297C9.01736 13.8328 8.31795 14.0349 7.46167 14.0349C6.65583 14.0349 6.06505 13.8285 5.68805 13.4144C5.42658 13.1201 5.29651 12.7463 5.29651 12.2945C5.29651 12.1077 5.3187 11.9068 5.36298 11.6907L6.27533 7.25598H7.65326L6.75332 11.6405C6.72563 11.7618 6.71457 11.8748 6.71602 11.9766C6.71457 12.2012 6.76989 12.3852 6.88194 12.5288C7.04519 12.7422 7.31013 12.8482 7.67883 12.8482C8.10281 12.8482 8.45217 12.7436 8.72332 12.533C8.99452 12.3238 9.17157 12.0268 9.25111 11.6405L10.1539 7.25598H11.5248L10.6118 11.6907" fill="white"/>
<path fill-rule="evenodd" clip-rule="evenodd" d="M16.3987 9.94613H17.4778L16.6325 13.904H15.5555L16.3987 9.94613ZM16.7384 8.50415H17.8272L17.6238 9.46484H16.5351L16.7384 8.50415Z" fill="white"/>
<path fill-rule="evenodd" clip-rule="evenodd" d="M18.4331 13.6027C18.1508 13.3308 18.0083 12.964 18.007 12.4982C18.007 12.4187 18.0118 12.3281 18.0222 12.229C18.0326 12.1286 18.0458 12.031 18.0644 11.9404C18.1924 11.2975 18.4649 10.7871 18.8848 10.4105C19.304 10.0326 19.8097 9.8429 20.4018 9.8429C20.8867 9.8429 21.2712 9.97959 21.5529 10.2529C21.8343 10.5277 21.9754 10.8986 21.9754 11.3701C21.9754 11.4508 21.9692 11.5443 21.9588 11.6447C21.9463 11.7465 21.9313 11.8441 21.9138 11.9404C21.7887 12.5735 21.5169 13.0784 21.097 13.448C20.6771 13.8203 20.1728 14.0057 19.5848 14.0057C19.0979 14.0057 18.7146 13.8718 18.4331 13.6027ZM20.4896 12.819C20.6799 12.6112 20.8161 12.2959 20.8991 11.8763C20.9116 11.8107 20.9226 11.7424 20.9295 11.674C20.9364 11.6071 20.9391 11.5443 20.9391 11.4871C20.9391 11.2431 20.8775 11.0535 20.7538 10.9195C20.6307 10.7842 20.4557 10.7174 20.2296 10.7174C19.9307 10.7174 19.6872 10.8232 19.4964 11.0353C19.3039 11.2473 19.1677 11.568 19.0819 11.9948C19.0701 12.0603 19.0605 12.1259 19.0515 12.19C19.0446 12.2556 19.0426 12.3169 19.0439 12.3727C19.0439 12.6154 19.1055 12.8023 19.2293 12.9347C19.3523 13.0672 19.5266 13.1327 19.7557 13.1327C20.0559 13.1327 20.2994 13.0282 20.4896 12.819Z" fill="white"/>
<path fill-rule="evenodd" clip-rule="evenodd" d="M28.9771 16.6903L29.2374 15.7671H30.553L30.4962 16.1059C30.4962 16.1059 31.1685 15.7671 31.6527 15.7671C32.137 15.7671 33.2795 15.7671 33.2795 15.7671L33.0209 16.6903H32.765L31.5378 21.0442H31.7937L31.5503 21.9088H31.2943L31.1879 22.284H29.9138L30.0201 21.9088H27.5065L27.7514 21.0442H28.0033L29.2316 16.6903H28.9771ZM30.3966 16.6903L30.0617 17.8687C30.0617 17.8687 30.6347 17.647 31.1285 17.5843C31.2376 17.1728 31.3801 16.6903 31.3801 16.6903L30.3966 16.6903ZM29.9067 18.4209L29.5707 19.6551C29.5707 19.6551 30.2056 19.34 30.6414 19.3134C30.7672 18.8364 30.8932 18.4209 30.8932 18.4209L29.9067 18.4209ZM30.153 21.0442L30.4048 20.1489H29.4227L29.1696 21.0442H30.153ZM33.3349 15.71H34.5718L34.6243 16.17C34.6161 16.2871 34.6852 16.3431 34.8319 16.3431H35.0504L34.8292 17.1226H33.9202C33.573 17.1407 33.3945 17.0069 33.3779 16.7181L33.3349 15.71ZM32.9725 17.382H36.9789L36.7438 18.2188H35.4682L35.2495 18.9969H36.5238L36.2872 19.8323H34.868L34.5469 20.3219H35.2415L35.402 21.3022C35.4212 21.3998 35.507 21.4472 35.6536 21.4472H35.8694L35.6427 22.2546H34.8789C34.4832 22.2742 34.2787 22.1403 34.2619 21.8517L34.0778 20.9564L33.4457 21.9089C33.2962 22.178 33.0665 22.3036 32.7568 22.284H31.5905L31.8174 21.4764H32.1813C32.3307 21.4764 32.4551 21.4095 32.5671 21.2743L33.5564 19.8323H32.2808L32.5172 18.9969H33.9008L34.1208 18.2188H32.736L32.9725 17.382Z" fill="white"/>
<path fill-rule="evenodd" clip-rule="evenodd" d="M11.8811 9.94466H12.8543L12.743 10.5164L12.8827 10.3533C13.1982 10.013 13.5814 9.84424 14.0338 9.84424C14.4433 9.84424 14.7386 9.96423 14.924 10.2054C15.1066 10.4467 15.1564 10.7801 15.07 11.2082L14.5339 13.9053H13.5337L14.0178 11.4606C14.0677 11.2082 14.0539 11.0199 13.977 10.8985C13.901 10.7772 13.7556 10.7173 13.5461 10.7173C13.2888 10.7173 13.0722 10.7981 12.8959 10.9585C12.7187 11.1203 12.6019 11.3449 12.5444 11.6307L12.0983 13.9053H11.096L11.8811 9.94466" fill="white"/>
<path fill-rule="evenodd" clip-rule="evenodd" d="M23.042 9.94466H24.016L23.9054 10.5164L24.0436 10.3533C24.3592 10.013 24.7438 9.84424 25.1948 9.84424C25.6043 9.84424 25.9003 9.96423 26.0842 10.2054C26.2657 10.4467 26.3181 10.7801 26.2295 11.2082L25.6955 13.9053H24.6939L25.1782 11.4606C25.2279 11.2082 25.2142 11.0199 25.138 10.8985C25.0591 10.7772 24.9165 10.7173 24.7079 10.7173C24.4505 10.7173 24.2347 10.7981 24.0562 10.9585C23.879 11.1203 23.7616 11.3449 23.7063 11.6307L23.2581 13.9053H22.257L23.042 9.94466" fill="white"/>
<path fill-rule="evenodd" clip-rule="evenodd" d="M27.8565 7.49023H30.6843C31.228 7.49023 31.6485 7.61445 31.9376 7.85837C32.2253 8.1053 32.3694 8.45956 32.3694 8.92114V8.93502C32.3694 9.02284 32.3636 9.12191 32.3555 9.22923C32.3415 9.33525 32.3234 9.44257 32.3002 9.55422C32.1756 10.1651 31.8864 10.656 31.4397 11.0283C30.9913 11.3993 30.4602 11.5862 29.8488 11.5862H28.3323L27.8634 13.9054H26.5504L27.8565 7.49023ZM28.5633 10.4705H29.821C30.1488 10.4705 30.4088 10.3937 30.5985 10.2418C30.7867 10.0884 30.9112 9.85413 30.9803 9.53619C30.9912 9.47746 30.9981 9.42455 31.0065 9.37576C31.0108 9.32979 31.0162 9.28363 31.0162 9.23916C31.0162 9.01175 30.9361 8.84719 30.7755 8.744C30.6151 8.63929 30.3634 8.5892 30.0146 8.5892H28.9465L28.5633 10.4705Z" fill="white"/>
<path fill-rule="evenodd" clip-rule="evenodd" d="M38.2462 14.671C37.8311 15.5607 37.4355 16.0794 37.2032 16.3206C36.9706 16.5592 36.5101 17.1143 35.4005 17.0724L35.496 16.3933C36.4297 16.1032 36.9346 14.7963 37.2224 14.2177L36.8794 9.9558L37.6016 9.94604H38.2074L38.2726 12.6195L39.4082 9.94604H40.558L38.2462 14.671" fill="white"/>
<path fill-rule="evenodd" clip-rule="evenodd" d="M35.0312 10.2683L34.5744 10.5849C34.0971 10.2084 33.6614 9.97548 32.8204 10.3687C31.6747 10.9042 30.7175 15.0113 33.8717 13.6585L34.0515 13.8733L35.2925 13.9054L36.1074 10.1734L35.0312 10.2683ZM34.3255 12.3086C34.1261 12.9013 33.6809 13.2931 33.3323 13.1816C32.9836 13.0728 32.8591 12.501 33.0611 11.9069C33.2602 11.3128 33.7085 10.9223 34.0543 11.0339C34.4029 11.1427 34.5288 11.7144 34.3255 12.3086Z" fill="white"/>
</svg>
